ISO-10303-21;
HEADER;
/* Generated by software containing ST-Developer
 * from STEP Tools, Inc. (www.steptools.com) 
 */

FILE_DESCRIPTION(
/* description */ (''),
/* implementation_level */ '2;1');

FILE_NAME(
/* name */ 'porta carte mani bagni.step',
/* time_stamp */ '2026-01-15T17:18:33+01:00',
/* author */ (''),
/* organization */ (''),
/* preprocessor_version */ 'ST-DEVELOPER v20.1',
/* originating_system */ 'Autodesk Translation Framework v14.21.0.0',
/* authorisation */ '');

FILE_SCHEMA (('AUTOMOTIVE_DESIGN { 1 0 10303 214 3 1 1 }'));
ENDSEC;

DATA;
#10=MECHANICAL_DESIGN_GEOMETRIC_PRESENTATION_REPRESENTATION('',(#13),#479);
#11=SHAPE_REPRESENTATION_RELATIONSHIP('SRR','None',#486,#12);
#12=ADVANCED_BREP_SHAPE_REPRESENTATION('',(#14),#478);
#13=STYLED_ITEM('',(#495),#14);
#14=MANIFOLD_SOLID_BREP('Corpo1',#249);
#15=TOROIDAL_SURFACE('',#271,8.5,1.);
#16=TOROIDAL_SURFACE('',#276,10.5,1.);
#17=TOROIDAL_SURFACE('',#279,9.65,1.);
#18=TOROIDAL_SURFACE('',#284,9.65,1.);
#19=TOROIDAL_SURFACE('',#289,7.5,1.);
#20=TOROIDAL_SURFACE('',#294,7.5,1.);
#21=TOROIDAL_SURFACE('',#299,9.65,1.);
#22=TOROIDAL_SURFACE('',#304,9.65,1.);
#23=CYLINDRICAL_SURFACE('',#268,4.);
#24=CYLINDRICAL_SURFACE('',#274,9.5);
#25=CYLINDRICAL_SURFACE('',#282,10.65);
#26=CYLINDRICAL_SURFACE('',#292,6.5);
#27=CYLINDRICAL_SURFACE('',#302,10.65);
#28=FACE_BOUND('',#57,.T.);
#29=FACE_BOUND('',#67,.T.);
#30=FACE_BOUND('',#72,.T.);
#31=PLANE('',#266);
#32=PLANE('',#270);
#33=PLANE('',#287);
#34=PLANE('',#297);
#35=PLANE('',#307);
#36=FACE_OUTER_BOUND('',#55,.T.);
#37=FACE_OUTER_BOUND('',#56,.T.);
#38=FACE_OUTER_BOUND('',#58,.T.);
#39=FACE_OUTER_BOUND('',#59,.T.);
#40=FACE_OUTER_BOUND('',#60,.T.);
#41=FACE_OUTER_BOUND('',#61,.T.);
#42=FACE_OUTER_BOUND('',#62,.T.);
#43=FACE_OUTER_BOUND('',#63,.T.);
#44=FACE_OUTER_BOUND('',#64,.T.);
#45=FACE_OUTER_BOUND('',#65,.T.);
#46=FACE_OUTER_BOUND('',#66,.T.);
#47=FACE_OUTER_BOUND('',#68,.T.);
#48=FACE_OUTER_BOUND('',#69,.T.);
#49=FACE_OUTER_BOUND('',#70,.T.);
#50=FACE_OUTER_BOUND('',#71,.T.);
#51=FACE_OUTER_BOUND('',#73,.T.);
#52=FACE_OUTER_BOUND('',#74,.T.);
#53=FACE_OUTER_BOUND('',#75,.T.);
#54=FACE_OUTER_BOUND('',#76,.T.);
#55=EDGE_LOOP('',(#165,#166,#167,#168));
#56=EDGE_LOOP('',(#169));
#57=EDGE_LOOP('',(#170));
#58=EDGE_LOOP('',(#171,#172,#173,#174));
#59=EDGE_LOOP('',(#175));
#60=EDGE_LOOP('',(#176,#177,#178,#179));
#61=EDGE_LOOP('',(#180,#181,#182,#183));
#62=EDGE_LOOP('',(#184,#185,#186,#187));
#63=EDGE_LOOP('',(#188,#189,#190,#191));
#64=EDGE_LOOP('',(#192,#193,#194,#195));
#65=EDGE_LOOP('',(#196,#197,#198,#199));
#66=EDGE_LOOP('',(#200));
#67=EDGE_LOOP('',(#201));
#68=EDGE_LOOP('',(#202,#203,#204,#205));
#69=EDGE_LOOP('',(#206,#207,#208,#209));
#70=EDGE_LOOP('',(#210,#211,#212,#213));
#71=EDGE_LOOP('',(#214));
#72=EDGE_LOOP('',(#215));
#73=EDGE_LOOP('',(#216,#217,#218,#219));
#74=EDGE_LOOP('',(#220,#221,#222,#223));
#75=EDGE_LOOP('',(#224,#225,#226,#227));
#76=EDGE_LOOP('',(#228));
#77=LINE('',#411,#83);
#78=LINE('',#418,#84);
#79=LINE('',#427,#85);
#80=LINE('',#439,#86);
#81=LINE('',#454,#87);
#82=LINE('',#469,#88);
#83=VECTOR('',#314,4.5);
#84=VECTOR('',#323,4.);
#85=VECTOR('',#336,9.5);
#86=VECTOR('',#353,10.65);
#87=VECTOR('',#374,6.5);
#88=VECTOR('',#395,10.65);
#89=CIRCLE('',#264,4.);
#90=CIRCLE('',#265,5.);
#91=CIRCLE('',#267,8.5);
#92=CIRCLE('',#269,4.);
#93=CIRCLE('',#272,1.);
#94=CIRCLE('',#273,9.5);
#95=CIRCLE('',#275,9.5);
#96=CIRCLE('',#277,10.075);
#97=CIRCLE('',#278,1.);
#98=CIRCLE('',#280,1.);
#99=CIRCLE('',#281,10.65);
#100=CIRCLE('',#283,10.65);
#101=CIRCLE('',#285,1.);
#102=CIRCLE('',#286,9.65);
#103=CIRCLE('',#288,7.5);
#104=CIRCLE('',#290,6.5);
#105=CIRCLE('',#291,1.);
#106=CIRCLE('',#293,6.5);
#107=CIRCLE('',#295,7.5);
#108=CIRCLE('',#296,1.);
#109=CIRCLE('',#298,9.65);
#110=CIRCLE('',#300,1.);
#111=CIRCLE('',#301,10.65);
#112=CIRCLE('',#303,10.65);
#113=CIRCLE('',#305,1.);
#114=CIRCLE('',#306,9.65);
#115=VERTEX_POINT('',#408);
#116=VERTEX_POINT('',#410);
#117=VERTEX_POINT('',#414);
#118=VERTEX_POINT('',#417);
#119=VERTEX_POINT('',#422);
#120=VERTEX_POINT('',#426);
#121=VERTEX_POINT('',#430);
#122=VERTEX_POINT('',#434);
#123=VERTEX_POINT('',#438);
#124=VERTEX_POINT('',#442);
#125=VERTEX_POINT('',#446);
#126=VERTEX_POINT('',#449);
#127=VERTEX_POINT('',#453);
#128=VERTEX_POINT('',#457);
#129=VERTEX_POINT('',#461);
#130=VERTEX_POINT('',#464);
#131=VERTEX_POINT('',#468);
#132=VERTEX_POINT('',#472);
#133=EDGE_CURVE('',#115,#115,#89,.T.);
#134=EDGE_CURVE('',#115,#116,#77,.T.);
#135=EDGE_CURVE('',#116,#116,#90,.T.);
#136=EDGE_CURVE('',#117,#117,#91,.T.);
#137=EDGE_CURVE('',#115,#118,#78,.T.);
#138=EDGE_CURVE('',#118,#118,#92,.T.);
#139=EDGE_CURVE('',#117,#119,#93,.T.);
#140=EDGE_CURVE('',#119,#119,#94,.T.);
#141=EDGE_CURVE('',#119,#120,#79,.T.);
#142=EDGE_CURVE('',#120,#120,#95,.T.);
#143=EDGE_CURVE('',#121,#121,#96,.T.);
#144=EDGE_CURVE('',#121,#120,#97,.T.);
#145=EDGE_CURVE('',#121,#122,#98,.T.);
#146=EDGE_CURVE('',#122,#122,#99,.T.);
#147=EDGE_CURVE('',#122,#123,#80,.T.);
#148=EDGE_CURVE('',#123,#123,#100,.T.);
#149=EDGE_CURVE('',#123,#124,#101,.T.);
#150=EDGE_CURVE('',#124,#124,#102,.T.);
#151=EDGE_CURVE('',#125,#125,#103,.T.);
#152=EDGE_CURVE('',#126,#126,#104,.T.);
#153=EDGE_CURVE('',#126,#125,#105,.T.);
#154=EDGE_CURVE('',#126,#127,#81,.T.);
#155=EDGE_CURVE('',#127,#127,#106,.T.);
#156=EDGE_CURVE('',#128,#128,#107,.T.);
#157=EDGE_CURVE('',#128,#127,#108,.T.);
#158=EDGE_CURVE('',#129,#129,#109,.T.);
#159=EDGE_CURVE('',#129,#130,#110,.T.);
#160=EDGE_CURVE('',#130,#130,#111,.T.);
#161=EDGE_CURVE('',#130,#131,#82,.T.);
#162=EDGE_CURVE('',#131,#131,#112,.T.);
#163=EDGE_CURVE('',#131,#132,#113,.T.);
#164=EDGE_CURVE('',#132,#132,#114,.T.);
#165=ORIENTED_EDGE('',*,*,#133,.T.);
#166=ORIENTED_EDGE('',*,*,#134,.T.);
#167=ORIENTED_EDGE('',*,*,#135,.T.);
#168=ORIENTED_EDGE('',*,*,#134,.F.);
#169=ORIENTED_EDGE('',*,*,#136,.F.);
#170=ORIENTED_EDGE('',*,*,#135,.F.);
#171=ORIENTED_EDGE('',*,*,#133,.F.);
#172=ORIENTED_EDGE('',*,*,#137,.T.);
#173=ORIENTED_EDGE('',*,*,#138,.T.);
#174=ORIENTED_EDGE('',*,*,#137,.F.);
#175=ORIENTED_EDGE('',*,*,#138,.F.);
#176=ORIENTED_EDGE('',*,*,#136,.T.);
#177=ORIENTED_EDGE('',*,*,#139,.T.);
#178=ORIENTED_EDGE('',*,*,#140,.T.);
#179=ORIENTED_EDGE('',*,*,#139,.F.);
#180=ORIENTED_EDGE('',*,*,#140,.F.);
#181=ORIENTED_EDGE('',*,*,#141,.T.);
#182=ORIENTED_EDGE('',*,*,#142,.F.);
#183=ORIENTED_EDGE('',*,*,#141,.F.);
#184=ORIENTED_EDGE('',*,*,#143,.T.);
#185=ORIENTED_EDGE('',*,*,#144,.T.);
#186=ORIENTED_EDGE('',*,*,#142,.T.);
#187=ORIENTED_EDGE('',*,*,#144,.F.);
#188=ORIENTED_EDGE('',*,*,#143,.F.);
#189=ORIENTED_EDGE('',*,*,#145,.T.);
#190=ORIENTED_EDGE('',*,*,#146,.T.);
#191=ORIENTED_EDGE('',*,*,#145,.F.);
#192=ORIENTED_EDGE('',*,*,#146,.F.);
#193=ORIENTED_EDGE('',*,*,#147,.T.);
#194=ORIENTED_EDGE('',*,*,#148,.F.);
#195=ORIENTED_EDGE('',*,*,#147,.F.);
#196=ORIENTED_EDGE('',*,*,#148,.T.);
#197=ORIENTED_EDGE('',*,*,#149,.T.);
#198=ORIENTED_EDGE('',*,*,#150,.T.);
#199=ORIENTED_EDGE('',*,*,#149,.F.);
#200=ORIENTED_EDGE('',*,*,#150,.F.);
#201=ORIENTED_EDGE('',*,*,#151,.F.);
#202=ORIENTED_EDGE('',*,*,#152,.T.);
#203=ORIENTED_EDGE('',*,*,#153,.T.);
#204=ORIENTED_EDGE('',*,*,#151,.T.);
#205=ORIENTED_EDGE('',*,*,#153,.F.);
#206=ORIENTED_EDGE('',*,*,#152,.F.);
#207=ORIENTED_EDGE('',*,*,#154,.T.);
#208=ORIENTED_EDGE('',*,*,#155,.F.);
#209=ORIENTED_EDGE('',*,*,#154,.F.);
#210=ORIENTED_EDGE('',*,*,#156,.T.);
#211=ORIENTED_EDGE('',*,*,#157,.T.);
#212=ORIENTED_EDGE('',*,*,#155,.T.);
#213=ORIENTED_EDGE('',*,*,#157,.F.);
#214=ORIENTED_EDGE('',*,*,#158,.F.);
#215=ORIENTED_EDGE('',*,*,#156,.F.);
#216=ORIENTED_EDGE('',*,*,#158,.T.);
#217=ORIENTED_EDGE('',*,*,#159,.T.);
#218=ORIENTED_EDGE('',*,*,#160,.T.);
#219=ORIENTED_EDGE('',*,*,#159,.F.);
#220=ORIENTED_EDGE('',*,*,#160,.F.);
#221=ORIENTED_EDGE('',*,*,#161,.T.);
#222=ORIENTED_EDGE('',*,*,#162,.F.);
#223=ORIENTED_EDGE('',*,*,#161,.F.);
#224=ORIENTED_EDGE('',*,*,#162,.T.);
#225=ORIENTED_EDGE('',*,*,#163,.T.);
#226=ORIENTED_EDGE('',*,*,#164,.T.);
#227=ORIENTED_EDGE('',*,*,#163,.F.);
#228=ORIENTED_EDGE('',*,*,#164,.F.);
#229=CONICAL_SURFACE('',#263,4.5,0.785398163397448);
#230=ADVANCED_FACE('',(#36),#229,.F.);
#231=ADVANCED_FACE('',(#37,#28),#31,.T.);
#232=ADVANCED_FACE('',(#38),#23,.F.);
#233=ADVANCED_FACE('',(#39),#32,.F.);
#234=ADVANCED_FACE('',(#40),#15,.T.);
#235=ADVANCED_FACE('',(#41),#24,.T.);
#236=ADVANCED_FACE('',(#42),#16,.F.);
#237=ADVANCED_FACE('',(#43),#17,.T.);
#238=ADVANCED_FACE('',(#44),#25,.T.);
#239=ADVANCED_FACE('',(#45),#18,.T.);
#240=ADVANCED_FACE('',(#46,#29),#33,.T.);
#241=ADVANCED_FACE('',(#47),#19,.F.);
#242=ADVANCED_FACE('',(#48),#26,.T.);
#243=ADVANCED_FACE('',(#49),#20,.F.);
#244=ADVANCED_FACE('',(#50,#30),#34,.T.);
#245=ADVANCED_FACE('',(#51),#21,.T.);
#246=ADVANCED_FACE('',(#52),#27,.T.);
#247=ADVANCED_FACE('',(#53),#22,.T.);
#248=ADVANCED_FACE('',(#54),#35,.T.);
#249=CLOSED_SHELL('',(#230,#231,#232,#233,#234,#235,#236,#237,#238,#239,
#240,#241,#242,#243,#244,#245,#246,#247,#248));
#250=DERIVED_UNIT_ELEMENT(#252,1.);
#251=DERIVED_UNIT_ELEMENT(#481,-3.);
#252=(
MASS_UNIT()
NAMED_UNIT(*)
SI_UNIT(.KILO.,.GRAM.)
);
#253=DERIVED_UNIT((#250,#251));
#254=MEASURE_REPRESENTATION_ITEM('density measure',
POSITIVE_RATIO_MEASURE(7850.),#253);
#255=PROPERTY_DEFINITION_REPRESENTATION(#260,#257);
#256=PROPERTY_DEFINITION_REPRESENTATION(#261,#258);
#257=REPRESENTATION('material name',(#259),#478);
#258=REPRESENTATION('density',(#254),#478);
#259=DESCRIPTIVE_REPRESENTATION_ITEM('Acciaio','Acciaio');
#260=PROPERTY_DEFINITION('material property','material name',#488);
#261=PROPERTY_DEFINITION('material property','density of part',#488);
#262=AXIS2_PLACEMENT_3D('',#406,#308,#309);
#263=AXIS2_PLACEMENT_3D('',#407,#310,#311);
#264=AXIS2_PLACEMENT_3D('',#409,#312,#313);
#265=AXIS2_PLACEMENT_3D('',#412,#315,#316);
#266=AXIS2_PLACEMENT_3D('',#413,#317,#318);
#267=AXIS2_PLACEMENT_3D('',#415,#319,#320);
#268=AXIS2_PLACEMENT_3D('',#416,#321,#322);
#269=AXIS2_PLACEMENT_3D('',#419,#324,#325);
#270=AXIS2_PLACEMENT_3D('',#420,#326,#327);
#271=AXIS2_PLACEMENT_3D('',#421,#328,#329);
#272=AXIS2_PLACEMENT_3D('',#423,#330,#331);
#273=AXIS2_PLACEMENT_3D('',#424,#332,#333);
#274=AXIS2_PLACEMENT_3D('',#425,#334,#335);
#275=AXIS2_PLACEMENT_3D('',#428,#337,#338);
#276=AXIS2_PLACEMENT_3D('',#429,#339,#340);
#277=AXIS2_PLACEMENT_3D('',#431,#341,#342);
#278=AXIS2_PLACEMENT_3D('',#432,#343,#344);
#279=AXIS2_PLACEMENT_3D('',#433,#345,#346);
#280=AXIS2_PLACEMENT_3D('',#435,#347,#348);
#281=AXIS2_PLACEMENT_3D('',#436,#349,#350);
#282=AXIS2_PLACEMENT_3D('',#437,#351,#352);
#283=AXIS2_PLACEMENT_3D('',#440,#354,#355);
#284=AXIS2_PLACEMENT_3D('',#441,#356,#357);
#285=AXIS2_PLACEMENT_3D('',#443,#358,#359);
#286=AXIS2_PLACEMENT_3D('',#444,#360,#361);
#287=AXIS2_PLACEMENT_3D('',#445,#362,#363);
#288=AXIS2_PLACEMENT_3D('',#447,#364,#365);
#289=AXIS2_PLACEMENT_3D('',#448,#366,#367);
#290=AXIS2_PLACEMENT_3D('',#450,#368,#369);
#291=AXIS2_PLACEMENT_3D('',#451,#370,#371);
#292=AXIS2_PLACEMENT_3D('',#452,#372,#373);
#293=AXIS2_PLACEMENT_3D('',#455,#375,#376);
#294=AXIS2_PLACEMENT_3D('',#456,#377,#378);
#295=AXIS2_PLACEMENT_3D('',#458,#379,#380);
#296=AXIS2_PLACEMENT_3D('',#459,#381,#382);
#297=AXIS2_PLACEMENT_3D('',#460,#383,#384);
#298=AXIS2_PLACEMENT_3D('',#462,#385,#386);
#299=AXIS2_PLACEMENT_3D('',#463,#387,#388);
#300=AXIS2_PLACEMENT_3D('',#465,#389,#390);
#301=AXIS2_PLACEMENT_3D('',#466,#391,#392);
#302=AXIS2_PLACEMENT_3D('',#467,#393,#394);
#303=AXIS2_PLACEMENT_3D('',#470,#396,#397);
#304=AXIS2_PLACEMENT_3D('',#471,#398,#399);
#305=AXIS2_PLACEMENT_3D('',#473,#400,#401);
#306=AXIS2_PLACEMENT_3D('',#474,#402,#403);
#307=AXIS2_PLACEMENT_3D('',#475,#404,#405);
#308=DIRECTION('axis',(0.,0.,1.));
#309=DIRECTION('refdir',(1.,0.,0.));
#310=DIRECTION('center_axis',(0.,-1.,0.));
#311=DIRECTION('ref_axis',(0.,0.,-1.));
#312=DIRECTION('center_axis',(0.,1.,0.));
#313=DIRECTION('ref_axis',(0.,0.,-1.));
#314=DIRECTION('',(8.65956056235493E-17,-0.707106781186547,0.707106781186547));
#315=DIRECTION('center_axis',(0.,-1.,0.));
#316=DIRECTION('ref_axis',(0.,0.,-1.));
#317=DIRECTION('center_axis',(0.,-1.,0.));
#318=DIRECTION('ref_axis',(0.,0.,-1.));
#319=DIRECTION('center_axis',(0.,1.,0.));
#320=DIRECTION('ref_axis',(6.12323399573677E-17,0.,1.));
#321=DIRECTION('center_axis',(0.,1.,0.));
#322=DIRECTION('ref_axis',(0.,0.,-1.));
#323=DIRECTION('',(0.,1.,0.));
#324=DIRECTION('center_axis',(0.,1.,0.));
#325=DIRECTION('ref_axis',(0.,0.,-1.));
#326=DIRECTION('center_axis',(0.,1.,0.));
#327=DIRECTION('ref_axis',(0.,0.,-1.));
#328=DIRECTION('center_axis',(0.,-1.,0.));
#329=DIRECTION('ref_axis',(0.,0.,-1.));
#330=DIRECTION('center_axis',(-1.,0.,-1.22464679914735E-16));
#331=DIRECTION('ref_axis',(-1.22464679914735E-16,0.,1.));
#332=DIRECTION('center_axis',(0.,-1.,0.));
#333=DIRECTION('ref_axis',(6.12323399573677E-17,0.,1.));
#334=DIRECTION('center_axis',(0.,-1.,0.));
#335=DIRECTION('ref_axis',(0.,0.,-1.));
#336=DIRECTION('',(0.,1.,0.));
#337=DIRECTION('center_axis',(0.,1.,0.));
#338=DIRECTION('ref_axis',(1.22464679914735E-16,0.,-1.));
#339=DIRECTION('center_axis',(0.,-1.,0.));
#340=DIRECTION('ref_axis',(1.22464679914735E-16,0.,-1.));
#341=DIRECTION('center_axis',(0.,-1.,0.));
#342=DIRECTION('ref_axis',(1.22464679914735E-16,0.,-1.));
#343=DIRECTION('center_axis',(-1.,0.,-2.44929359829471E-16));
#344=DIRECTION('ref_axis',(-2.44929359829471E-16,0.,1.));
#345=DIRECTION('center_axis',(0.,-1.,0.));
#346=DIRECTION('ref_axis',(0.,0.,-1.));
#347=DIRECTION('center_axis',(-1.,0.,-1.22464679914735E-16));
#348=DIRECTION('ref_axis',(-1.22464679914735E-16,0.,1.));
#349=DIRECTION('center_axis',(0.,-1.,0.));
#350=DIRECTION('ref_axis',(6.12323399573677E-17,0.,1.));
#351=DIRECTION('center_axis',(0.,-1.,0.));
#352=DIRECTION('ref_axis',(0.,0.,-1.));
#353=DIRECTION('',(0.,1.,0.));
#354=DIRECTION('center_axis',(0.,1.,0.));
#355=DIRECTION('ref_axis',(6.12323399573677E-17,0.,1.));
#356=DIRECTION('center_axis',(0.,-1.,0.));
#357=DIRECTION('ref_axis',(0.,0.,-1.));
#358=DIRECTION('center_axis',(-1.,0.,-1.22464679914735E-16));
#359=DIRECTION('ref_axis',(-1.22464679914735E-16,0.,1.));
#360=DIRECTION('center_axis',(0.,-1.,0.));
#361=DIRECTION('ref_axis',(6.12323399573677E-17,0.,1.));
#362=DIRECTION('center_axis',(0.,1.,0.));
#363=DIRECTION('ref_axis',(0.,0.,1.));
#364=DIRECTION('center_axis',(0.,1.,0.));
#365=DIRECTION('ref_axis',(6.12323399573676E-17,0.,1.));
#366=DIRECTION('center_axis',(0.,-1.,0.));
#367=DIRECTION('ref_axis',(0.,0.,-1.));
#368=DIRECTION('center_axis',(0.,-1.,0.));
#369=DIRECTION('ref_axis',(6.12323399573677E-17,0.,1.));
#370=DIRECTION('center_axis',(-1.,0.,-1.22464679914735E-16));
#371=DIRECTION('ref_axis',(-1.22464679914735E-16,0.,1.));
#372=DIRECTION('center_axis',(0.,-1.,0.));
#373=DIRECTION('ref_axis',(0.,0.,-1.));
#374=DIRECTION('',(0.,1.,0.));
#375=DIRECTION('center_axis',(0.,1.,0.));
#376=DIRECTION('ref_axis',(6.12323399573677E-17,0.,1.));
#377=DIRECTION('center_axis',(0.,-1.,0.));
#378=DIRECTION('ref_axis',(0.,0.,-1.));
#379=DIRECTION('center_axis',(0.,-1.,0.));
#380=DIRECTION('ref_axis',(6.12323399573676E-17,0.,1.));
#381=DIRECTION('center_axis',(-1.,0.,-1.22464679914735E-16));
#382=DIRECTION('ref_axis',(-1.22464679914735E-16,0.,1.));
#383=DIRECTION('center_axis',(0.,-1.,0.));
#384=DIRECTION('ref_axis',(0.,0.,-1.));
#385=DIRECTION('center_axis',(0.,1.,0.));
#386=DIRECTION('ref_axis',(6.12323399573677E-17,0.,1.));
#387=DIRECTION('center_axis',(0.,-1.,0.));
#388=DIRECTION('ref_axis',(0.,0.,-1.));
#389=DIRECTION('center_axis',(-1.,0.,-1.22464679914735E-16));
#390=DIRECTION('ref_axis',(-1.22464679914735E-16,0.,1.));
#391=DIRECTION('center_axis',(0.,-1.,0.));
#392=DIRECTION('ref_axis',(6.12323399573677E-17,0.,1.));
#393=DIRECTION('center_axis',(0.,-1.,0.));
#394=DIRECTION('ref_axis',(0.,0.,-1.));
#395=DIRECTION('',(0.,1.,0.));
#396=DIRECTION('center_axis',(0.,1.,0.));
#397=DIRECTION('ref_axis',(6.12323399573677E-17,0.,1.));
#398=DIRECTION('center_axis',(0.,-1.,0.));
#399=DIRECTION('ref_axis',(0.,0.,-1.));
#400=DIRECTION('center_axis',(-1.,0.,-1.22464679914735E-16));
#401=DIRECTION('ref_axis',(-1.22464679914735E-16,0.,1.));
#402=DIRECTION('center_axis',(0.,-1.,0.));
#403=DIRECTION('ref_axis',(6.12323399573677E-17,0.,1.));
#404=DIRECTION('center_axis',(0.,1.,0.));
#405=DIRECTION('ref_axis',(0.,0.,1.));
#406=CARTESIAN_POINT('',(0.,0.,0.));
#407=CARTESIAN_POINT('Origin',(0.,0.5,3.70326324089341E-16));
#408=CARTESIAN_POINT('',(4.89858719658941E-16,1.,4.));
#409=CARTESIAN_POINT('Origin',(0.,1.,3.70326324089341E-16));
#410=CARTESIAN_POINT('',(-6.12323399573677E-16,0.,5.));
#411=CARTESIAN_POINT('',(5.51091059616309E-16,0.5,4.5));
#412=CARTESIAN_POINT('Origin',(0.,0.,3.70326324089341E-16));
#413=CARTESIAN_POINT('Origin',(0.,0.,0.));
#414=CARTESIAN_POINT('',(-1.04094977927525E-15,0.,8.5));
#415=CARTESIAN_POINT('Origin',(0.,0.,0.));
#416=CARTESIAN_POINT('Origin',(0.,5.,3.70326324089341E-16));
#417=CARTESIAN_POINT('',(4.89858719658941E-16,10.,4.));
#418=CARTESIAN_POINT('',(4.89858719658941E-16,5.,4.));
#419=CARTESIAN_POINT('Origin',(0.,10.,3.70326324089341E-16));
#420=CARTESIAN_POINT('Origin',(0.,10.,3.70326324089341E-16));
#421=CARTESIAN_POINT('Origin',(0.,0.999999999999996,0.));
#422=CARTESIAN_POINT('',(-1.16341445918999E-15,0.999999999999996,9.5));
#423=CARTESIAN_POINT('Origin',(-1.04094977927525E-15,0.999999999999996,
8.5));
#424=CARTESIAN_POINT('Origin',(0.,0.999999999999996,0.));
#425=CARTESIAN_POINT('Origin',(0.,58.75,0.));
#426=CARTESIAN_POINT('',(4.93038065763132E-31,116.689613300977,9.5));
#427=CARTESIAN_POINT('',(-1.16341445918999E-15,58.75,9.5));
#428=CARTESIAN_POINT('Origin',(0.,116.689613300977,0.));
#429=CARTESIAN_POINT('Origin',(0.,116.689613300977,0.));
#430=CARTESIAN_POINT('',(-2.46766330028192E-15,117.594806650488,10.075));
#431=CARTESIAN_POINT('Origin',(0.,117.594806650488,0.));
#432=CARTESIAN_POINT('Origin',(-2.57175827820944E-15,116.689613300977,10.5));
#433=CARTESIAN_POINT('Origin',(0.,118.5,0.));
#434=CARTESIAN_POINT('',(-1.30424884109193E-15,118.5,10.65));
#435=CARTESIAN_POINT('Origin',(-1.1817841611772E-15,118.5,9.65));
#436=CARTESIAN_POINT('Origin',(0.,118.5,0.));
#437=CARTESIAN_POINT('Origin',(0.,119.,0.));
#438=CARTESIAN_POINT('',(-1.30424884109193E-15,119.5,10.65));
#439=CARTESIAN_POINT('',(-1.30424884109193E-15,119.,10.65));
#440=CARTESIAN_POINT('Origin',(0.,119.5,0.));
#441=CARTESIAN_POINT('Origin',(0.,119.5,0.));
#442=CARTESIAN_POINT('',(-1.1817841611772E-15,120.5,9.65));
#443=CARTESIAN_POINT('Origin',(-1.1817841611772E-15,119.5,9.65));
#444=CARTESIAN_POINT('Origin',(0.,120.5,0.));
#445=CARTESIAN_POINT('Origin',(0.,120.5,-10.65));
#446=CARTESIAN_POINT('',(-9.18485099360515E-16,120.5,7.5));
#447=CARTESIAN_POINT('Origin',(0.,120.5,0.));
#448=CARTESIAN_POINT('Origin',(0.,121.5,0.));
#449=CARTESIAN_POINT('',(-7.9602041944578E-16,121.5,6.5));
#450=CARTESIAN_POINT('Origin',(0.,121.5,0.));
#451=CARTESIAN_POINT('Origin',(-9.18485099360515E-16,121.5,7.5));
#452=CARTESIAN_POINT('Origin',(0.,122.25,0.));
#453=CARTESIAN_POINT('',(-7.9602041944578E-16,123.,6.5));
#454=CARTESIAN_POINT('',(-7.9602041944578E-16,122.25,6.5));
#455=CARTESIAN_POINT('Origin',(0.,123.,0.));
#456=CARTESIAN_POINT('Origin',(0.,123.,0.));
#457=CARTESIAN_POINT('',(-9.18485099360515E-16,124.,7.5));
#458=CARTESIAN_POINT('Origin',(0.,124.,0.));
#459=CARTESIAN_POINT('Origin',(-9.18485099360515E-16,123.,7.5));
#460=CARTESIAN_POINT('Origin',(0.,124.,-6.5));
#461=CARTESIAN_POINT('',(-1.1817841611772E-15,124.,9.65));
#462=CARTESIAN_POINT('Origin',(0.,124.,0.));
#463=CARTESIAN_POINT('Origin',(0.,125.,0.));
#464=CARTESIAN_POINT('',(-1.30424884109193E-15,125.,10.65));
#465=CARTESIAN_POINT('Origin',(-1.1817841611772E-15,125.,9.65));
#466=CARTESIAN_POINT('Origin',(0.,125.,0.));
#467=CARTESIAN_POINT('Origin',(0.,125.25,0.));
#468=CARTESIAN_POINT('',(-1.30424884109193E-15,125.5,10.65));
#469=CARTESIAN_POINT('',(-1.30424884109193E-15,125.25,10.65));
#470=CARTESIAN_POINT('Origin',(0.,125.5,0.));
#471=CARTESIAN_POINT('Origin',(0.,125.5,0.));
#472=CARTESIAN_POINT('',(-1.1817841611772E-15,126.5,9.65));
#473=CARTESIAN_POINT('Origin',(-1.1817841611772E-15,125.5,9.65));
#474=CARTESIAN_POINT('Origin',(0.,126.5,0.));
#475=CARTESIAN_POINT('Origin',(0.,126.5,-10.65));
#476=UNCERTAINTY_MEASURE_WITH_UNIT(LENGTH_MEASURE(0.01),#480,
'DISTANCE_ACCURACY_VALUE',
'Maximum model space distance between geometric entities at asserted c
onnectivities');
#477=UNCERTAINTY_MEASURE_WITH_UNIT(LENGTH_MEASURE(0.01),#480,
'DISTANCE_ACCURACY_VALUE',
'Maximum model space distance between geometric entities at asserted c
onnectivities');
#478=(
GEOMETRIC_REPRESENTATION_CONTEXT(3)
GLOBAL_UNCERTAINTY_ASSIGNED_CONTEXT((#476))
GLOBAL_UNIT_ASSIGNED_CONTEXT((#480,#482,#483))
REPRESENTATION_CONTEXT('','3D')
);
#479=(
GEOMETRIC_REPRESENTATION_CONTEXT(3)
GLOBAL_UNCERTAINTY_ASSIGNED_CONTEXT((#477))
GLOBAL_UNIT_ASSIGNED_CONTEXT((#480,#482,#483))
REPRESENTATION_CONTEXT('','3D')
);
#480=(
LENGTH_UNIT()
NAMED_UNIT(*)
SI_UNIT(.MILLI.,.METRE.)
);
#481=(
LENGTH_UNIT()
NAMED_UNIT(*)
SI_UNIT($,.METRE.)
);
#482=(
NAMED_UNIT(*)
PLANE_ANGLE_UNIT()
SI_UNIT($,.RADIAN.)
);
#483=(
NAMED_UNIT(*)
SI_UNIT($,.STERADIAN.)
SOLID_ANGLE_UNIT()
);
#484=SHAPE_DEFINITION_REPRESENTATION(#485,#486);
#485=PRODUCT_DEFINITION_SHAPE('',$,#488);
#486=SHAPE_REPRESENTATION('',(#262),#478);
#487=PRODUCT_DEFINITION_CONTEXT('part definition',#492,'design');
#488=PRODUCT_DEFINITION('2025-12-09-11-05-32-279',
'porta carte mani bagni',#489,#487);
#489=PRODUCT_DEFINITION_FORMATION('',$,#494);
#490=PRODUCT_RELATED_PRODUCT_CATEGORY('porta carte mani bagni',
'porta carte mani bagni',(#494));
#491=APPLICATION_PROTOCOL_DEFINITION('international standard',
'automotive_design',2009,#492);
#492=APPLICATION_CONTEXT(
'Core Data for Automotive Mechanical Design Process');
#493=PRODUCT_CONTEXT('part definition',#492,'mechanical');
#494=PRODUCT('2025-12-09-11-05-32-279','porta carte mani bagni',$,(#493));
#495=PRESENTATION_STYLE_ASSIGNMENT((#496));
#496=SURFACE_STYLE_USAGE(.BOTH.,#497);
#497=SURFACE_SIDE_STYLE('',(#498));
#498=SURFACE_STYLE_FILL_AREA(#499);
#499=FILL_AREA_STYLE('Acciaio - Satinato',(#500));
#500=FILL_AREA_STYLE_COLOUR('Acciaio - Satinato',#501);
#501=COLOUR_RGB('Acciaio - Satinato',0.627450980392157,0.627450980392157,
0.627450980392157);
ENDSEC;
END-ISO-10303-21;
